<svg width="19" height="22" viewBox="0 0 19 22" fill="none"
     xmlns="http://www.w3.org/2000/svg">
    <path
        d="M3.81115 20.8409C7.20836 21.9856 11.1665 21.2926 11.8862 20.194C13.0394 18.4361 7.98667 18.1481 9.05926 17.4618C9.28176 17.3197 11.2207 17.3218 12.6518 16.9407C15.4143 16.206 16.1903 13.676 13.3667 13.2235C13.3667 13.2235 12.2067 12.6164 13.536 12.2596C19.474 10.6659 18.7636 8.22696 16.1752 7.65499C15.0494 7.40657 14.5174 7.92146 16.3751 5.10599C17.6782 3.13203 17.5143 -0.452685 15.4618 1.1415C13.3375 2.79222 12.8265 3.91644 12.1906 3.87573C10.5045 3.76893 12.054 0.630632 9.5895 1.49615C7.91413 2.0847 6.9065 9.48002 6.18798 6.20648C5.4627 2.90135 2.82045 4.18563 3.66676 8.84107C4.56715 13.7995 3.88742 15.6931 2.85817 12.1512C1.82868 8.60943 -0.43377 11.1872 0.595007 14.7289C1.62483 18.271 3.8111 20.8408 3.8111 20.8408"
        fill="#0093A0"/>
</svg>
